<svg data-v-0dd9719b="" version="1.0" xmlns="http://www.w3.org/2000/svg" xmlns:xlink="http://www.w3.org/1999/xlink" width="100%" height="100%" viewBox="0 0 340.000000 250.000000" preserveAspectRatio="xMidYMid meet" color-interpolation-filters="sRGB" style="margin: auto;"> <rect data-v-0dd9719b="" x="0" y="0" width="100%" height="100%" fill="#fff" fill-opacity="1" class="background"></rect> <rect data-v-0dd9719b="" x="0" y="0" width="100%" height="100%" fill="url(#watermark)" fill-opacity="1" class="watermarklayer"></rect> <g data-v-0dd9719b="" fill="#8dc21f" class="icon-text-wrapper icon-svg-group iconsvg" transform="translate(48.68000030517578,102.64730262756348)"><g class="iconsvg-imagesvg" transform="translate(0,0)"><g><rect fill="#8dc21f" fill-opacity="0" stroke-width="2" x="0" y="0" width="60" height="44.70539147021131" class="image-rect"></rect> <svg x="0" y="0" width="60" height="44.70539147021131" filtersec="colorsb4194344504" class="image-svg-svg primary" style="overflow: visible;"><svg version="1.1" id="图层_1" xmlns="http://www.w3.org/2000/svg" xmlns:xlink="http://www.w3.org/1999/xlink" x="0px" y="0px" viewBox="0.15999984741210938 1.1000022888183594 98.84684753417969 73.64999389648438" enable-background="new 0 0 100 76" xml:space="preserve">
<g>
	<path fill="#8DC21F" d="M37.59,74.75h27.85c33.57,0,33.64-30.17,33.56-33.27H71.15C37.58,41.48,37.5,71.64,37.59,74.75z"></path>
	<path fill="#138F2E" d="M33.44,74.74V46.89c0-33.56-30.17-33.64-33.28-33.56v27.85C0.16,74.74,30.33,74.82,33.44,74.74z"></path>
	<ellipse fill="#CEDA00" cx="51.53" cy="20.3" rx="19.2" ry="19.2"></ellipse>
</g>
</svg></svg> <!----></g></g> <g transform="translate(67,3.9276962280273438)"><g data-gra="path-name" fill-rule="" class="tp-name iconsvg-namesvg"><g transform="scale(1)"><g><path d="M40.27 2.29L40.27 2.29 30.51 2.25Q29.43 2.21 29.43 1.03L29.43 1.03 29.43-1.89 26.95-1.89 26.95 0.9Q26.95 1.8 25.83 1.8L25.83 1.8 19.13 1.8Q18.18 1.8 18.13 0.85L18.13 0.85 18.13-1.89 13.09-1.89Q12.29-1.93 12.29-2.88L12.29-2.88 12.29-7.02Q12.29-8.01 13.23-8.01L13.23-8.01 18.09-8.01 18.09-9.58 13.54-9.58Q12.38-9.58 12.38-10.57L12.38-10.57 12.33-14.35Q12.33-15.3 13.37-15.3L13.37-15.3 14.13-15.3 13.54-17.59 11.21-17.59 11.21 1.03Q11.12 2.21 10.13 2.21L10.13 2.21 3.96 2.21Q2.61 2.16 2.61 0.77L2.61 0.77 2.7-22.14Q2.7-24.12 4.77-24.12L4.77-24.12 17.41-24.16 17.41-25.7 3.33-25.65Q2.16-25.65 2.16-26.73L2.16-26.73 2.16-31.99Q2.16-33.16 3.24-33.16L3.24-33.16 17.41-33.16 17.41-33.66Q17.41-34.24 18.45-34.24L18.45-34.24 26.23-34.2Q27.36-34.2 27.36-33.16L27.36-33.16 41.53-33.16Q42.75-33.16 42.75-32.04L42.75-32.04 42.8-26.77Q42.8-25.7 41.67-25.7L41.67-25.7 27.36-25.7 27.36-24.3 40.5-24.3Q42.34-24.3 42.34-22.32L42.34-22.32 42.34 0.45Q42.34 2.29 40.27 2.29ZM21.55-15.3L23.13-15.3 23.67-17.59 21.02-17.59 21.55-15.3ZM32.85-5.63L34.29-5.63 34.29-17.59 31.14-17.59 30.6-15.3 31.86-15.3Q32.8-15.3 32.8-14.4L32.8-14.4 32.89-10.66Q32.89-9.67 31.86-9.58L31.86-9.58 26.95-9.58 26.95-8.01 31.68-8.01Q32.76-8.01 32.8-7.02L32.8-7.02 32.85-5.63ZM86.44-25.65L86.44-25.65 48.42-25.65Q47.34-25.65 47.34-27L47.34-27 47.34-31.5Q47.34-32.89 48.24-32.89L48.24-32.89 62.33-32.89 62.33-33.3Q62.33-34.24 63.67-34.24L63.67-34.24 72.58-34.2Q73.66-34.2 73.66-32.89L73.66-32.89 86.27-32.89Q87.84-32.89 87.84-31.5L87.84-31.5 87.88-27Q87.88-25.65 86.44-25.65ZM58.09-15.97L77.81-15.97 77.81-18.18 58.09-18.18 58.09-15.97ZM70.88 2.61L70.88 2.61 61.52 2.61Q60.25 2.61 60.25 1.21L60.25 1.21 60.21-3.6Q60.21-4.95 61.56-4.95L61.56-4.95 62.64-4.95 62.64-9.27 49.91-9.27Q48.47-9.27 48.47-11.25L48.47-11.25 48.47-22.68Q48.47-24.61 50.09-24.61L50.09-24.61 85.05-24.61Q87.25-24.61 87.25-23.04L87.25-23.04 87.25-11.21Q87.25-9.27 85-9.27L85-9.27 73.31-9.27 73.08 0.45Q72.99 2.61 70.88 2.61ZM86.49 1.93L86.49 1.93 80.55 1.93Q79.47 1.93 79.02 1.21L79.02 1.21 75.42-4.09Q75.02-4.77 75.02-5.71L75.02-5.71 75.02-6.93Q75.02-8.28 76.95-8.32L76.95-8.32 82.31-8.32Q83.38-8.23 84.1-7.51L84.1-7.51 87.21-3.6Q87.7-2.75 87.7-1.67L87.7-1.67 87.7 0.32Q87.7 1.08 87.37 1.48 87.03 1.89 86.49 1.93ZM54.27 1.89L54.27 1.89 48.38 1.89Q47.16 1.84 47.16 0.85L47.16 0.85 47.12-1.26Q47.12-1.8 47.66-3.01L47.66-3.01 50.17-7.06Q50.72-8.19 51.75-8.19L51.75-8.19 58.5-8.19Q59.53-8.1 59.53-7.25L59.53-7.25 59.53-6.39Q59.53-5.58 59.31-5.04L59.31-5.04 56.12 1.03Q55.26 1.89 54.27 1.89ZM112.86-12.06L109.8-12.01Q108.99-12.11 108.94-12.78L108.94-12.78 108.94-15.07Q108.94-16.02 109.62-16.4 110.3-16.79 110.97-17.1L110.97-17.1 109.84-17.1Q108.81-17.1 108.81-18.13L108.81-18.13 108.81-20.79Q108.81-21.87 109.75-21.87L109.75-21.87 116.82-21.87 116.82-22.77 110.43-22.77Q109.39-22.77 109.39-23.85L109.39-23.85 109.39-26.5Q109.39-27.54 110.34-27.54L110.34-27.54 116.82-27.54 116.82-28.26 110.25-28.26Q109.17-28.26 109.17-29.29L109.17-29.29 109.17-31.81Q109.17-32.85 110.16-32.85L110.16-32.85 116.82-32.85Q116.82-34.2 117.58-34.2L117.58-34.2 123.8-34.24Q124.83-34.16 124.83-33.16L124.83-33.16 124.83-32.85 131.13-32.8Q132.21-32.8 132.21-31.86L132.21-31.86 132.25-29.29Q132.25-28.26 131.31-28.26L131.31-28.26 124.78-28.26 124.78-27.54 130.91-27.54Q131.94-27.54 131.94-26.5L131.94-26.5 131.99-23.85Q131.99-22.77 131.04-22.77L131.04-22.77 124.78-22.77 124.78-21.87 131.72-21.87Q132.75-21.87 132.8-20.75L132.8-20.75 132.8-17.82Q132.75-17.1 131.99-17.1L131.99-17.1 130.68-17.1 131.94-16.47Q132.8-16.02 132.8-14.98L132.8-14.98 132.8-12.78Q132.66-12.15 131.76-12.06L131.76-12.06 128.97-12.11Q127.84-12.11 127.35-12.6L127.35-12.6Q125.1-14.13 123.48-15.23 121.86-16.34 120.83-17.1L120.83-17.1 119.66-17.1Q118.8-16.38 117.52-15.34 116.23-14.31 114.48-12.91L114.48-12.91Q113.67-12.11 112.86-12.06L112.86-12.06ZM95.98-0.77L95.98-0.77 93.02-0.77Q92.3-0.77 92.3-1.75L92.3-1.75 92.43-19.89Q92.56-21.02 93.47-21.02L93.47-21.02 96.03-21.02Q96.84-20.97 96.93-19.66L96.93-19.66 97.02-15.71 96.8-1.67Q96.8-1.21 96.57-0.99 96.34-0.77 95.98-0.77ZM107.59-0.9L107.59-0.9 105.16-0.9Q104.4-0.9 104.36-1.89L104.36-1.89 104.17-15.79 104.27-19.8Q104.27-21.11 105.12-21.11L105.12-21.11 107.28-21.11Q107.64-20.88 107.91-20.5 108.18-20.11 108.18-19.48L108.18-19.48 108.41-1.75Q108.36-0.9 107.59-0.9ZM102.33 2.34L102.33 2.34 98.86 2.34Q97.83 2.34 97.74 1.17L97.74 1.17 97.78-22.36 93.47-22.36Q92.2-22.36 92.16-23.76L92.16-23.76 92.16-29.83Q92.16-31.32 93.51-31.32L93.51-31.32 96.97-31.32 96.97-32.67Q96.97-34.16 98.28-34.16L98.28-34.16 102.78-34.16Q104.13-34.16 104.13-32.4L104.13-32.4 104.13-31.32 107.37-31.32Q108.67-31.23 108.72-29.79L108.72-29.79 108.72-23.89Q108.72-22.36 107.5-22.36L107.5-22.36 103.32-22.36 103.32 0.99Q103.32 2.34 102.33 2.34ZM123.07 2.29L123.07 2.29 117.94 2.25Q116.95 2.25 116.78 1.57L116.78 1.57 116.73-0.94 110.11-0.94Q108.59-0.94 108.59-1.67L108.59-1.67 108.59-5.17Q108.59-5.98 109.84-5.98L109.84-5.98 116.64-5.98 116.64-7.38 110.34-7.38Q109.22-7.38 109.22-8.14L109.22-8.14 109.22-11.21Q109.22-11.97 110.3-11.97L110.3-11.97 116.69-11.97 116.69-14.04Q116.73-14.89 117.77-14.98L117.77-14.98 123.3-14.98Q123.84-14.98 124.06-14.69 124.29-14.4 124.38-13.95 124.47-13.5 124.45-12.96 124.42-12.42 124.42-11.92L124.42-11.92 130.77-11.92Q131.94-11.92 131.94-11.21L131.94-11.21 131.94-8.14Q131.94-7.38 130.86-7.38L130.86-7.38 124.42-7.38 124.42-5.98 130.86-5.94Q132.66-5.94 132.7-5.22L132.7-5.22 132.7-1.67Q132.7-0.94 131.18-0.94L131.18-0.94 124.34-0.94 124.34 1.57Q124.2 2.25 123.07 2.29ZM164.29-3.73L170.64-3.73 170.64-7.25 164.29-7.25 164.29-3.73ZM141.84-11.61L152.15-11.61 152.15-12.46 147.78-12.46Q147.15-12.46 147.15-13.68L147.15-13.68 147.15-18.59 146.25-18.59 145.75-12.87Q145.66-12.38 144.99-12.38L144.99-12.38 142.97-12.38Q142.38-12.38 142.38-12.87L142.38-12.87 142.47-18.59 141.84-18.59 141.84-11.61ZM146.29-24.61L147.15-24.61 147.15-26.73 146.29-26.73 146.29-24.61ZM151.25-17.05L152.15-17.05 152.15-18.59 151.25-18.59 151.25-17.05ZM141.84-4.86L152.15-4.86 152.15-6.34 141.84-6.34 141.84-4.86ZM175.37 2.34L159.88 2.38Q158.26 2.38 158.26 0.49L158.26 0.49 158.26-10.8Q158.26-12.55 159.75-12.55L159.75-12.55 172.89-12.6 175.23-12.6Q176.85-12.6 176.85-10.89L176.85-10.89 176.89 0.67Q176.89 2.34 175.37 2.34L175.37 2.34ZM154.71 2.29L139.32 2.34Q137.47 2.21 137.47 0.18L137.47 0.18 137.43-22.5Q137.43-24.61 139.23-24.61L139.23-24.61 142.56-24.61 142.56-26.73 138.15-26.73Q137.16-26.73 137.16-27.9L137.16-27.9 137.16-32.85Q137.16-34.2 138.1-34.2L138.1-34.2 155.75-34.16Q156.87-34.16 156.87-32.94L156.87-32.94 156.87-27.9Q156.87-26.73 155.84-26.73L155.84-26.73 151.25-26.73 151.25-24.61Q152.06-24.61 153-24.68 153.94-24.75 154.75-24.61 155.56-24.48 156.1-24.03 156.65-23.58 156.65-22.5L156.65-22.5 156.65 0.27Q156.65 2.25 154.71 2.29L154.71 2.29ZM176.81-13.99L158.35-13.9Q157.41-13.9 157.41-14.94L157.41-14.94 157.41-20.11Q157.41-21.24 158.35-21.24L158.35-21.24 164.79-21.24 164.79-23.89 162.54-23.89Q162.04-22.68 161.41-22.68L161.41-22.68 158.18-22.68Q157.45-22.68 157.45-23.67L157.45-23.67Q157.45-27.49 157.63-28.17L157.63-28.17 159.34-33.25Q159.66-33.84 160.25-33.93L160.25-33.93 163.53-33.93Q164.12-33.84 164.12-32.8L164.12-32.8 164.12-31.23 164.84-31.23 164.84-33.12Q164.84-34.2 165.42-34.2L165.42-34.2 170.69-34.2Q171.36-34.2 171.36-33.12L171.36-33.12 171.36-31.23 176.53-31.23Q177.57-31.23 177.66-30.2L177.66-30.2 177.66-24.93Q177.66-23.94 176.63-23.94L176.63-23.94 171.27-23.94 171.27-21.24 176.72-21.24Q177.8-21.24 177.8-20.2L177.8-20.2 177.8-14.94Q177.8-13.99 176.81-13.99L176.81-13.99Z" transform="translate(-2.1600000858306885, 34.2400016784668)"></path></g> <!----> <!----> <!----> <!----> <!----> <!----> <!----></g></g> <!----></g></g><defs v-gra="od"></defs></svg>